<svg class="logo svelte-gsmy57" height="37" style="padding: 10px 10px 5px;" viewBox="0 0 1000 400" fill="none" xmlns="http://www.w3.org/2000/svg">
<path d="M0 170.341C0 78.8832 81.1619 0 177.189 0C250.746 0 299.125 43.8211 299.125 112.035C299.125 203.112 217.577 282 121.55 282C48.0081 282 0 238.174 0 170.341ZM238.136 116.226C238.136 79.2642 213.364 54.4906 174.495 54.4906C113.908 54.4906 60.9469 107.843 60.9469 165.769C60.9469 202.736 85.3319 227.504 124.196 227.504C184.804 227.504 238.157 174.152 238.157 116.226H238.136Z" fill="black"></path>
<path d="M300.458 178.809L342.296 63.8687C359.627 16.2371 400.39 -6.62607 441.567 8.36199C453.928 13.1106 464.368 21.8212 471.255 33.1325C478.142 44.4437 481.087 57.7181 479.631 70.881C496.957 41.0954 526.327 29.484 557.115 40.7144C597.572 55.4432 613.379 98.9307 595.916 146.89L551.083 270.071L300.458 178.809ZM443.064 107.848C449.97 88.8752 442.62 71.1933 424.717 64.6783C407.175 58.2904 390.177 67.1076 383.271 86.0861L364.22 138.364L424.019 160.127L443.064 107.848ZM549.4 137.639C556.179 119.021 548.696 101.699 530.439 95.0515C526.362 93.429 521.99 92.6759 517.605 92.8405C513.22 93.0051 508.917 94.0837 504.973 96.0073C501.029 97.9308 497.529 100.657 494.699 104.011C491.869 107.365 489.77 111.273 488.538 115.485L466.64 175.639L527.497 197.798L549.4 137.639Z" fill="black"></path>
<path d="M600.5 178.809L642.337 63.8687C659.668 16.2371 700.432 -6.62607 741.608 8.36199C753.97 13.1098 764.411 21.8202 771.298 33.1317C778.184 44.4431 781.13 57.718 779.673 70.881C797.004 41.0954 826.369 29.484 857.157 40.7144C897.619 55.4432 913.426 98.9307 895.957 146.89L851.129 270.071L600.5 178.809ZM743.106 107.848C750.012 88.8752 742.661 71.1933 724.759 64.6783C707.216 58.2904 690.218 67.1076 683.312 86.0861L664.262 138.364L724.06 160.127L743.106 107.848ZM849.473 137.639C856.247 119.021 848.764 101.699 830.507 95.0515C826.429 93.429 822.058 92.6759 817.673 92.8405C813.288 93.0051 808.985 94.0837 805.041 96.0073C801.096 97.9308 797.597 100.657 794.767 104.011C791.937 107.365 789.838 111.273 788.606 115.485L766.713 175.639L827.57 197.798L849.473 137.639Z" fill="black"></path>
</svg>