<svg width="118" height="39" viewBox="0 0 118 39" fill="none" xmlns="http://www.w3.org/2000/svg">
<path d="M21.9564 19.0068L27.4481 28.5186H16.4648L21.9564 19.0068Z" fill="#DDEDED"/>
<path d="M16.4722 9.51194L21.9639 19.0238H10.9806L16.4722 9.51194Z" fill="#DDEDED"/>
<path d="M16.4746 9.51185H5.49129L10.983 0L16.4746 9.51185Z" fill="#DDEDED"/>
<path d="M32.9379 19.0105H21.9546L27.4462 9.49862L32.9379 19.0105Z" fill="#90A2AB"/>
<path d="M38.4261 28.5125H27.4428L32.9345 19.0007L38.4261 28.5125Z" fill="#90A2AB"/>
<path d="M32.9429 38.0183H21.9595L27.4512 28.5064L32.9429 38.0183Z" fill="#90A2AB"/>
<path d="M21.9542 38.0288H10.9708L16.4625 28.517L21.9542 38.0288Z" fill="#4E5960"/>
<path d="M16.4652 28.5194H5.48187L10.9735 19.0075L16.4652 28.5194Z" fill="#4E5960"/>
<path d="M10.9835 19.0248H0.000157514L5.49183 9.51297L10.9835 19.0248Z" fill="#DDEDED"/>
<path d="M32.9309 19.0111L43.9142 19.0111L38.4225 28.523L32.9309 19.0111Z" fill="#4E5960"/>
<path d="M32.9457 19.0242L38.4373 9.51231L43.929 19.0242H32.9457Z" fill="#90A2AB"/>
<path d="M21.9544 19.0101L32.9377 19.0101L27.4461 28.5219L21.9544 19.0101Z" fill="#90A2AB"/>
<path d="M27.4455 28.5125L38.4289 28.5125L32.9372 38.0244L27.4455 28.5125Z" fill="#90A2AB"/>
<path d="M5.47809 28.5188L16.4614 28.5187L10.9698 38.0306L5.47809 28.5188Z" fill="#4E5960"/>
<path d="M0 19.0256L10.9833 19.0256L5.49167 28.5374L0 19.0256Z" fill="#DDEDED"/>
<path d="M27.4543 9.51276L38.4377 9.51276L32.946 19.0246L27.4543 9.51276Z" fill="#90A2AB"/>
<path d="M16.4636 28.5215L10.9719 19.0097L21.9553 19.0097L16.4636 28.5215Z" fill="#DDEDED"/>
<path d="M21.9549 19.0097L16.4633 9.49788L27.4466 9.49788L21.9549 19.0097Z" fill="#DDEDED"/>
<path d="M27.4549 9.51314L21.9632 0.00128224L32.9466 0.00128128L27.4549 9.51314Z" fill="#4E5960"/>
<path d="M16.4743 9.51194L10.9826 9.0893e-05L21.9659 8.99328e-05L16.4743 9.51194Z" fill="#DDEDED"/>
<path d="M32.9463 0.00130928L38.4379 9.51316H27.4546L32.9463 0.00130928Z" fill="#4E5960"/>
<path d="M21.9634 0.00130928L27.455 9.51316H16.4717L21.9634 0.00130928Z" fill="#4E5960"/>
<path d="M21.9532 38.03L16.4615 28.5182H27.4449L21.9532 38.03Z" fill="#90A2AB"/>
<path d="M10.9824 19.0236L5.49073 9.51171L16.4741 9.51171L10.9824 19.0236Z" fill="#DDEDED"/>
<path d="M107.282 23.0847C101.792 23.0847 98.6648 20.3515 98.6648 14.2132C98.6648 8.09814 101.792 5.36488 107.282 5.36488C112.794 5.36488 115.945 8.09814 115.945 14.2132C115.945 20.3515 112.794 23.0847 107.282 23.0847ZM107.282 21.3938C111.96 21.3938 114.115 18.8922 114.115 14.2364C114.115 9.60375 111.96 7.10212 107.282 7.10212C102.626 7.10212 100.495 9.60375 100.495 14.2364C100.495 18.8922 102.626 21.3938 107.282 21.3938Z" fill="#3C5E66"/>
<path d="M87.7283 22.8068V5.64283H89.5582V21.139H98.6845V22.8068H87.7283Z" fill="#3C5E66"/>
<path d="M77.9505 23.0384C75.3562 23.0384 73.0167 22.5057 70.8394 21.0695L71.7659 19.6798C73.8274 20.9769 75.8426 21.417 77.9041 21.417C81.4481 21.417 83.0232 20.421 83.0232 18.0583C83.0232 15.6262 80.9849 15.2787 77.9041 14.7228C74.198 14.0743 71.6964 13.4488 71.6964 9.97436C71.6964 6.66202 73.8274 5.36488 77.9041 5.36488C80.5911 5.36488 82.5136 5.96712 83.8803 6.89365L82.9074 8.3761C81.6797 7.56538 79.8499 7.03263 77.9041 7.03263C74.8234 7.03263 73.5031 7.88967 73.5031 9.92803C73.5031 12.1054 75.2867 12.5223 78.3442 13.0782C82.0967 13.75 84.8068 14.3059 84.8068 17.9888C84.8068 21.3938 82.6294 23.0384 77.9505 23.0384Z" fill="#3C5E66"/>
<path d="M61.0103 23.0847C55.5206 23.0847 52.3936 20.3515 52.3936 14.2132C52.3936 8.09814 55.5206 5.36488 61.0103 5.36488C66.5231 5.36488 69.6733 8.09814 69.6733 14.2132C69.6733 20.3515 66.5231 23.0847 61.0103 23.0847ZM61.0103 21.3938C65.6892 21.3938 67.8434 18.8922 67.8434 14.2364C67.8434 9.60375 65.6892 7.10212 61.0103 7.10212C56.3545 7.10212 54.2234 9.60375 54.2234 14.2364C54.2234 18.8922 56.3545 21.3938 61.0103 21.3938Z" fill="#3C5E66"/>
<path d="M112.647 30.0691V32.5825H112.006V26.4155H114.669C116.101 26.4155 116.75 26.9981 116.75 28.2215C116.75 29.2785 116.242 29.8943 115.169 30.0358L116.658 32.5825H115.959L114.486 30.0691H112.647ZM112.647 29.4699H114.677C115.551 29.4699 116.092 29.2036 116.092 28.2465C116.092 27.2894 115.568 27.0231 114.653 27.0231H112.647V29.4699Z" fill="#3C5E66"/>
<path d="M106.857 32.5825V26.4155H110.935V27.0397H107.515V29.0787H110.852V29.6946H107.515V31.9833H110.968V32.5825H106.857Z" fill="#3C5E66"/>
<path d="M103.108 32.5825V27.0397H100.794V26.4155H106.079V27.0397H103.766V32.5825H103.108Z" fill="#3C5E66"/>
<path d="M94.9744 32.5825V26.4155H95.6901L99.377 31.5006V26.4155H100.009V32.5825H99.4102L95.6069 27.3477V32.5825H94.9744Z" fill="#3C5E66"/>
<path d="M89.8254 32.5825V26.4155H93.9035V27.0397H90.4829V29.0787H93.8202V29.6946H90.4829V31.9833H93.9367V32.5825H89.8254Z" fill="#3C5E66"/>
<path d="M86.3123 32.6657C85.3802 32.6657 84.5396 32.4743 83.7573 31.9583L84.0902 31.459C84.8309 31.925 85.555 32.0832 86.2957 32.0832C87.569 32.0832 88.135 31.7253 88.135 30.8764C88.135 30.0025 87.4026 29.8777 86.2957 29.678C84.9641 29.4449 84.0653 29.2202 84.0653 27.9718C84.0653 26.7817 84.8309 26.3157 86.2957 26.3157C87.2611 26.3157 87.9519 26.5321 88.4429 26.865L88.0933 27.3976C87.6522 27.1063 86.9948 26.9149 86.2957 26.9149C85.1888 26.9149 84.7144 27.2228 84.7144 27.9552C84.7144 28.7375 85.3552 28.8873 86.4538 29.0871C87.8021 29.3284 88.7758 29.5282 88.7758 30.8514C88.7758 32.0748 87.9935 32.6657 86.3123 32.6657Z" fill="#3C5E66"/>
<path d="M79.1296 32.5825V26.4155H83.2077V27.0397H79.7871V29.0787H83.1244V29.6946H79.7871V31.9833H83.2409V32.5825H79.1296Z" fill="#3C5E66"/>
<path d="M73.9631 30.0691V32.5825H73.3223V26.4155H75.9855C77.4169 26.4155 78.0661 26.9981 78.0661 28.2215C78.0661 29.2785 77.5584 29.8943 76.4848 30.0358L77.9745 32.5825H77.2754L75.8024 30.0691H73.9631ZM73.9631 29.4699H75.9938C76.8676 29.4699 77.4086 29.2036 77.4086 28.2465C77.4086 27.2894 76.8843 27.0231 75.9688 27.0231H73.9631V29.4699Z" fill="#3C5E66"/>
<path d="M69.5732 32.5825V27.0397H67.2595V26.4155H72.5443V27.0397H70.2306V32.5825H69.5732Z" fill="#3C5E66"/>
<path d="M62.2891 32.5825L64.7608 26.3739H65.4183L67.8901 32.5825H67.2243L66.6584 31.1594H63.4958L62.9382 32.5825H62.2891ZM63.7205 30.5601H66.4253L65.0771 27.1646L63.7205 30.5601Z" fill="#3C5E66"/>
<path d="M58.0869 32.5825V26.4155H58.7444V31.9833H62.0234V32.5825H58.0869Z" fill="#3C5E66"/>
<path d="M56.4716 32.5825L54.2661 29.3118L53.0344 30.66V32.5825H52.3936V26.4155H53.0344V29.8194L56.1553 26.4155H56.9127L54.6989 28.8374L57.2123 32.5825H56.4716Z" fill="#3C5E66"/>
</svg>
