<svg xmlns="http://www.w3.org/2000/svg" viewBox="0 0 286 96">
<path d="M79.08 14.1c0 .9 1.14 22.88 1.21 23.48A2.75 2.75 0 0081 39c.19.24 2 2.64 2.62 3.37a.3.3 0 00.45 0 56.77 56.77 0 005-9c.49-1.65 5.09-15.84 5.49-17a.73.73 0 011.12-.46c.45.22 4.35 2.71 4.65 3a.62.62 0 01.26.5 108.91 108.91 0 01-1.7 11.51c-.4 1.46-6.46 16.68-7.68 17.86S79.72 60.71 79.28 61.2a5.33 5.33 0 01-1.65 1c-.83.38-9.41 3.22-11.34 3.69a.4.4 0 01-.42-.1 5.24 5.24 0 01-1-2 .74.74 0 01.22-.48c.16-.16 9.62-10.14 12-12.83.31-.35.35-1-.22-1.66-.79-.93-4.8-5.23-5.24-5.87a6.15 6.15 0 01-.44-3c0-.75.48-18.8.79-21.67a.86.86 0 01.27-.59c1-.84 4.61-3.69 5.54-4.36.6-.33 1.21-.13 1.29.77zM2.94 3.72c-.64.25-1.07.46-1.08 1s0 17.87.07 19.87c.06 1.57.91 23 1.3 27.94.22 2.76.43 7.79.5 8.41a1.29 1.29 0 00.87 1.16c.5.25 6.67 3.76 7.22 3.76A2.1 2.1 0 0013.39 64c0-1.16-.58-21.43-.58-21.85a1.11 1.11 0 01.46-1l5.93-3.45c.82-.47 2.7-1.31 2.93-1.42s.6.07.62.55.57 11.5.58 12.52.95 11.53 1.06 11.93 1.54 1.88 1.94 1.77 2.39-3.27 2.68-3.68 2.33-3.28 2.35-4.17.64-19.26.71-20.2-.14-14.49-.14-15.24-.25-11.39-.31-11.86S31 7.18 30.5 7s-5.63-1.74-6.11-1.74-1.6 1.17-1.65 1.65-.16 9.34-.17 10.23-.11 7.22-.12 7.67 0 .86-.41 1c-.62.28-9.26 4.66-9.64 4.81s-.59 0-.57-.6.36-18.26.34-19.15-.06-8.87-.06-9.17S10.51.78 10 .9 3.77 3.4 2.94 3.72zM71.85 4.13a3.35 3.35 0 000-1.22c0-.22-.11-.28-.34-.31S65.33 2 65 2c0 0-.45 0-.57.17-.38.63-1.4 2.56-2.22 4a28 28 0 01-1.58 2.6.68.68 0 01-.93.17c-.59-.26-4.16-1.57-5.19-1.44s-10.63 2.2-12.27 3.78-5.64 5.09-5.61 15 0 14.48.08 15.85 2.33 4.74 2.88 5.36c.41.46 1 1.16 1.21 1.46a.34.34 0 010 .39c-.11.25-4 10-4.27 10.73a4.33 4.33 0 00-.19 1.73.6.6 0 00.39.46c.23.12 1.8.77 2.63 1a.88.88 0 00.74 0 8.92 8.92 0 002.27-1.57c.34-.48 6.79-10 7.17-10.59a.76.76 0 01.7-.43c.63 0 7.74-.39 10.65-3.52 2.48-2.66 6.55-12.82 6.62-16.73s-2.15-14.23-2.39-15.12a1 1 0 01.12-.85c.37-.57 6.11-9.55 6.61-10.32zm-12.67 31.1c-.48.89-3.25 6.06-4.31 6.4a32.62 32.62 0 01-7.14.45 2.88 2.88 0 01-2.57-2.26c-.25-2.29-.46-7.4-.46-10.45 0-4-.29-8.77 1.36-11s3.77-3.64 5.83-3.43 5.17 2.45 5.92 3.29 2.72 8.45 2.39 11.34a25.2 25.2 0 01-1.02 5.66z" fill="#222"/>
<path d="M123.81 10.43l-9.16-1.71C113.4 8.49 86 3 85.1 3s-2 1.42-2.56 2.23a18.57 18.57 0 00-1 2.16.66.66 0 00.44.85c2.9.79 23.65 5.53 24.46 5.76.34.1.33.35.29.72-.1.89-1.2 16.13-1.24 16.83s-1.07 26.65-1.07 27.21 2.08 2.81 2.73 3 3.89-5.57 4.05-5.86a7.12 7.12 0 001-2c.06-.52 1.33-20.49 1.47-21s1.76-15.23 1.85-15.64-.05-.75.7-.6 8.88 1.81 9.55 1.92c.12 0 .45 0 .54-.19.41-.81-.22-4.37-.31-5a11.45 11.45 0 00-1.13-2.23 1.43 1.43 0 00-1.06-.73zM170.45 3.4c.22-.12 6-2.48 6.75-2.67.31-.08 1.4.57 1.43 1.08s0 10.28 0 11.29.14 4.82.25 6 1.74 22.25 1.82 22.69a1.52 1.52 0 001.53.95c.76 0 17.24-.25 18.2-.25s1.29.18 1.11.93-1.95 5.34-2.19 5.74a2.55 2.55 0 01-2 1.14c-1.09.07-14.91.57-16 .62s-8.22-.77-8.8-.88-1-1-1.12-1.4-1.72-13.12-1.67-15.32c.06-2.46.3-28.83.31-29.2a.86.86 0 01.38-.72z" fill="#222"/>
<path d="M203.64 2.74a34.71 34.71 0 014-1.67c.42-.13.59.06.8.78.27.88 4.39 19.6 5.85 26.35s2 18.17 2.27 20a99.88 99.88 0 01.14 10.43c-.16.6-1.19.48-1.52.47s-2.44-.14-2.81-.18-1-.87-1-1.15-2.41-12.91-2.8-15.4-3.68-21.93-3.79-22.82-.18-2.28-.25-2.57a.35.35 0 00-.51-.23.74.74 0 00-.38.38c-.1.21-1.9 4.19-2.36 5-.34.6-6.53 14.21-7 14.62a2.45 2.45 0 01-1.48.62 41.14 41.14 0 01-4.86-.92 1.25 1.25 0 01-.87-1.17c0-1.12 7.57-16.76 8.29-18.52 1.51-3.66 7.09-12.56 7.29-13a2.27 2.27 0 01.99-1.02zM220.14 9.11c.56 0 5.51-.35 6.14-.35a1.47 1.47 0 011.14 1c.17.9 2.29 19 2.51 19.82s1.05 13.78 1.06 14a.38.38 0 00.73.14c.32-.57 7.2-15.61 7.59-16.36s3.86-9.11 4-9.43a.59.59 0 01.85-.29c.3.21 4.91 3.22 5.25 3.59s1 1.33.78 1.88-2 5.74-2.72 7-8.28 17.44-8.79 18.14-6.68 11.2-7.35 12.09-2.1 3.16-2.56 3.9-.81 1.45-1.54 1.3-1.87-.39-2.26-.49c-.73-.19-1-1.1-1.16-1.62s-1.59-18.63-1.64-19.92-1.69-21.5-1.9-23.59-.66-9.72-.7-10.17a.65.65 0 01.57-.64z" fill="#222"/>
<path d="M246.85 5.22c-.09-.78 1-1 2.14-1s15-.22 16.79-.19 17.35-.29 18.53-.29c.7 0 .87.16 1 .62s-.77 2.73-1 3.1a12.19 12.19 0 01-4.22 2.06c-1.41.22-10 1.51-11.18 1.72-1 .18-1.18.38-1.48 1.19s-5.11 24-5.65 25.49-5.61 22.76-5.89 23.28-.77.53-1.29.5l-5.6-.31c-.7-.05-1.76-1.83-2-2.42s.09-1.72.42-3.13 5.59-24.06 5.91-25.25 1.38-5.28 1.54-5.89 2.45-11.38 2.61-12.19 0-.83-.85-.88-7.3-.64-8-.83c-.48-.13-.61-.29-.84-.94a37.74 37.74 0 01-.94-4.64z" fill="#222"/>
<path d="M153.64 38.56c-3.42-4-8.15-9.13-9.2-10.38s-4.18-4.95-5.26-7.82-.89-6.34.37-7.86c1.6-1.92 4-2.5 6.74-2.3a7.13 7.13 0 014.91 3.5c.3.56 1.13 2.74 1.75 3 .89.4 2.75-.31 3.62-.59.36-.12.8-.36.78-.76a12 12 0 00-3.08-6.82c-.94-.86-5.26-4.78-10.67-3.84-7.6 1.31-10.6 5.49-11.16 6.9-.81 2.07-1 7.82 0 10.3.73 1.88 4.5 7 4.72 7.23a.65.65 0 01-.16.88c-.38.35-5.31 5.22-6.25 6.11-2.14 2-3.6 5.69-3.46 11.57.14 6.33 2.33 13.53 7.42 15 4.38 1.3 9.33 1.19 12.4 1.19 4.15 0 9.2-5.57 12.73-9.14a.58.58 0 01.73-.11c.2.19 10.09 8.83 11.07 9.69a3.28 3.28 0 001.87.6h3.36c.25 0 .29-.29.14-.46-2.19-2.36-18.36-20.03-23.37-25.89zm1.84 12.18c-1.78 1.84-6 6.61-8.71 6.79A21.49 21.49 0 01139 57c-3.24-.87-4.8-5.92-5.18-9.16-.35-3 1.2-8.29 3.16-10.06a43.51 43.51 0 014-3.28.56.56 0 01.71 0c.56.62 13.7 15.15 13.93 15.44s.14.51-.14.8zM12.31 89.23a6 6 0 01-1.64 4.32 5.6 5.6 0 01-4.24 1.71 5.42 5.42 0 01-4.16-1.71 6.09 6.09 0 01-1.6-4.32v-2.56a6.1 6.1 0 011.6-4.32 5.4 5.4 0 014.15-1.72 5.61 5.61 0 014.25 1.72 6 6 0 011.64 4.32zm-2.36-2.57a4.41 4.41 0 00-1-2.92 3.17 3.17 0 00-2.57-1.14A3 3 0 004 83.74a4.55 4.55 0 00-1 2.92v2.58a4.6 4.6 0 001 2.94 3 3 0 002.48 1.15A3.16 3.16 0 009 92.18a4.49 4.49 0 00.94-2.95zM28.72 91.4a1.82 1.82 0 00-.66-1.4 6.2 6.2 0 00-2.33-1 9.86 9.86 0 01-3.67-1.66 3.29 3.29 0 01-1.28-2.7 3.45 3.45 0 011.42-2.83 5.77 5.77 0 013.67-1.11 5.45 5.45 0 013.76 1.26 3.77 3.77 0 011.37 3V85h-2.29a2.29 2.29 0 00-.71-1.78 3 3 0 00-2.12-.68 3.1 3.1 0 00-2 .57 1.79 1.79 0 00-.7 1.46 1.59 1.59 0 00.76 1.34 8.4 8.4 0 002.5 1 8.34 8.34 0 013.49 1.7 3.57 3.57 0 011.19 2.76 3.34 3.34 0 01-1.42 2.83 6.13 6.13 0 01-3.74 1A6.6 6.6 0 0122 94.08a3.64 3.64 0 01-1.63-3.24v-.06h2.33a2.22 2.22 0 00.9 1.94 3.93 3.93 0 002.33.64 3.45 3.45 0 002.07-.52 1.68 1.68 0 00.72-1.44zM42 93.16h6.53v1.9h-8.92V80.84H42zM67.46 89.23a6 6 0 01-1.64 4.32 5.6 5.6 0 01-4.24 1.71 5.42 5.42 0 01-4.16-1.71 6.09 6.09 0 01-1.6-4.32v-2.56a6.1 6.1 0 011.6-4.32 5.4 5.4 0 014.15-1.72 5.61 5.61 0 014.25 1.72 6 6 0 011.64 4.32zm-2.36-2.57a4.41 4.41 0 00-1-2.92 3.17 3.17 0 00-2.57-1.14 3 3 0 00-2.47 1.14 4.55 4.55 0 00-.91 2.92v2.58a4.6 4.6 0 00.91 2.94 3 3 0 002.48 1.15 3.16 3.16 0 002.57-1.14 4.49 4.49 0 00.94-2.95zM95.11 91.4a1.82 1.82 0 00-.65-1.4 6.2 6.2 0 00-2.33-1 9.86 9.86 0 01-3.67-1.66 3.29 3.29 0 01-1.28-2.7 3.45 3.45 0 011.42-2.83 5.77 5.77 0 013.67-1.11A5.45 5.45 0 0196 81.9a3.77 3.77 0 011.37 3v.06h-2.26a2.29 2.29 0 00-.74-1.77 3 3 0 00-2.12-.68 3.1 3.1 0 00-2 .57 1.79 1.79 0 00-.7 1.46 1.59 1.59 0 00.76 1.34 8.4 8.4 0 002.5 1 8.34 8.34 0 013.49 1.7 3.57 3.57 0 011.19 2.76 3.34 3.34 0 01-1.42 2.83 6.13 6.13 0 01-3.74 1 6.6 6.6 0 01-3.91-1.19 3.64 3.64 0 01-1.63-3.24v-.06h2.31a2.22 2.22 0 00.9 1.94 3.93 3.93 0 002.33.64 3.45 3.45 0 002.05-.53 1.68 1.68 0 00.73-1.33zM117.19 89.23a6 6 0 01-1.64 4.32 5.6 5.6 0 01-4.24 1.71 5.42 5.42 0 01-4.16-1.71 6.09 6.09 0 01-1.6-4.32v-2.56a6.1 6.1 0 011.6-4.32 5.4 5.4 0 014.15-1.72 5.61 5.61 0 014.25 1.72 6 6 0 011.64 4.32zm-2.36-2.58a4.41 4.41 0 00-1-2.92 3.17 3.17 0 00-2.57-1.14 3 3 0 00-2.47 1.14 4.55 4.55 0 00-.91 2.92v2.58a4.6 4.6 0 00.91 2.94 3 3 0 002.48 1.15 3.16 3.16 0 002.57-1.14 4.49 4.49 0 00.94-2.95zM128.91 80.84L133 91.78h.06l4.1-10.94h3.08v14.22h-2.37v-4.84l.23-6.16h-.1l-4.22 11h-1.59l-4.2-11h.01l.23 6.13v4.84h-2.37V80.84zM152.43 80.84l4.09 10.94h.06l4.1-10.94h3.08v14.22h-2.37v-4.84l.23-6.16h-.06l-4.22 11h-1.59l-4.2-11h-.06l.23 6.13v4.84h-2.37V80.84zM181.47 88.67h-6.22v4.49h7.22v1.9h-9.59V80.84h9.52v1.9h-7.15v4h6.22zM193 89.17v5.9h-2.37V80.84h5.25a5.63 5.63 0 013.68 1.07 3.75 3.75 0 011.3 3.07 3.17 3.17 0 01-.57 1.9 3.92 3.92 0 01-1.67 1.27 3 3 0 011.73 1.25 4 4 0 01.53 2.12v1.18a4.78 4.78 0 00.16 1.22 1.72 1.72 0 00.53.91v.22h-2.44a1.59 1.59 0 01-.5-1 8.45 8.45 0 01-.11-1.36v-1.14a2.39 2.39 0 00-.62-1.74 2.28 2.28 0 00-1.72-.64zm0-1.9h2.75a3.22 3.22 0 002.08-.55 2.05 2.05 0 00.65-1.67 2.21 2.21 0 00-.64-1.68 2.76 2.76 0 00-2-.61H193zM212.25 89.67v5.39h-2.37V80.84h5.56a5.27 5.27 0 013.69 1.22 4.51 4.51 0 010 6.41 5.3 5.3 0 01-3.69 1.21zm0-1.9h3.18a2.6 2.6 0 002-.7 2.5 2.5 0 00.66-1.79 2.4 2.4 0 00-2.65-2.53h-3.18zM235.61 91.74H230l-1.13 3.32h-2.4l5.22-14.22H234l5.17 14.22h-2.41zm-4.88-2h4.21l-2.06-6.07h-.06zM249.5 89.17v5.9h-2.37V80.84h5.25a5.63 5.63 0 013.68 1.07 3.75 3.75 0 011.3 3.07 3.17 3.17 0 01-.57 1.9 3.92 3.92 0 01-1.67 1.27 3 3 0 011.73 1.25 4 4 0 01.53 2.12v1.18a4.82 4.82 0 00.16 1.22 1.73 1.73 0 00.53.91v.22h-2.44a1.59 1.59 0 01-.5-1 8.34 8.34 0 01-.11-1.36v-1.14a2.38 2.38 0 00-.62-1.74 2.28 2.28 0 00-1.72-.64zm0-1.9h2.75a3.22 3.22 0 002.08-.55A2 2 0 00255 85a2.21 2.21 0 00-.64-1.68 2.76 2.76 0 00-2-.61h-2.86zM270.39 88.91h-1.64v6.15h-2.37V80.84h2.37v6h1.36l4.46-6h2.81l-5.18 6.79 5.58 7.43h-2.9z" fill="#b7c42e"/>
</svg>