<svg width="549" height="105" viewBox="0 0 549 105" fill="none" xmlns="http://www.w3.org/2000/svg">
<g clip-path="url(#clip0_321_8)">
<path d="M41.3111 31.8563C32.9056 28.1794 24.7346 26.5668 24.7346 23.8285C24.7346 21.0902 28.3287 20.2161 32.0673 20.2161C42.4224 20.2161 49.6138 26.2829 49.6138 26.2829L58.0996 8.51793C58.0996 8.51793 49.3248 -0.00012207 32.0673 -0.00012207C14.8099 -0.00012207 1.57698 8.66307 1.57698 22.6738C1.57698 37.8296 15.1054 43.8028 25.2614 47.7345C31.0845 49.56 35.6614 51.0082 35.6614 54.1593C35.6614 56.4686 33.9334 58.349 28.9004 58.349C23.0066 58.349 18.4008 56.0364 14.8067 54.4496C9.91823 52.137 6.75132 52.5692 3.87669 56.7589L1.72152 60.081C-1.01179 64.4126 -0.581399 68.599 3.73215 71.0535C8.9097 74.0885 17.2509 77.8428 28.3287 77.8428C47.3109 77.8428 58.8191 67.2992 58.8191 53.4336C58.8191 40.4227 50.0378 35.0558 41.3143 31.8563H41.3111Z" fill="#552D0B"/>
<path d="M206.546 34.6625C206.546 45.7801 201.513 55.169 190.869 55.169C185.692 55.169 182.958 52.2791 182.958 45.3512V1.73206H158.076V49.973C158.076 70.915 169.725 77.8462 184.397 77.8462C194.319 77.8462 203.524 72.9372 207.552 64.9933H207.841C207.841 64.9933 207.696 66.148 207.696 66.8672V68.167C207.696 73.3662 210.285 76.111 215.462 76.111H223.518C228.695 76.111 231.429 73.3662 231.429 68.167V1.73206H206.546V34.6625Z" fill="#552D0B"/>
<path d="M280.179 5.1483e-05C256.305 5.1483e-05 241.633 17.0426 241.633 38.8489C241.633 58.6394 255.874 77.8462 282.337 77.8462C293.697 77.8462 302.469 74.237 307.791 71.202C312.108 68.7476 312.827 64.8482 310.524 60.3682L308.514 56.6139C306.07 51.9953 302.617 51.4147 297.87 53.5789C294.131 55.4593 289.384 57.0461 284.351 57.0461C276.44 57.0461 268.963 52.8565 267.09 43.7578H313.836C313.836 43.7578 314.411 38.4135 314.411 35.959C314.411 15.3042 302.045 -0.00317383 280.182 -0.00317383L280.179 5.1483e-05ZM267.668 29.4633C268.963 23.9738 272.412 18.7746 279.607 18.7746C285.501 18.7746 289.384 23.8287 289.384 29.4633H267.668Z" fill="#552D0B"/>
<path d="M463.423 55.169H443.573C438.829 55.169 436.957 55.6044 436.957 55.6044V55.3141C436.957 55.3141 439.979 53.0048 443.573 48.5249L470.614 14.2979V1.73206H404.456V22.6772H430.488C435.091 22.6772 436.96 22.3869 436.96 22.3869V22.6772C436.96 22.6772 434.227 24.8414 430.488 29.4665L406.759 59.2168C404.315 62.3969 403.309 64.1257 403.309 68.0283V69.9055C403.309 73.95 406.043 76.1142 411.22 76.1142H463.426C468.603 76.1142 471.337 73.3694 471.337 68.1702V63.1162C471.337 57.917 468.603 55.1722 463.426 55.1722L463.423 55.169Z" fill="#552D0B"/>
<path d="M120.902 3.8994C120.902 6.35386 121.187 7.94394 121.187 7.94394H120.902C120.902 7.94394 114.715 0 99.7545 0C80.0497 0 65.9559 15.3073 65.9559 38.8489C65.9559 62.3904 79.1889 77.8461 99.3241 77.8461C102.655 77.8461 105.558 77.3365 108.041 76.5689C108.78 76.3431 109.48 76.0915 110.142 75.8271C116.318 73.35 119.315 69.47 119.315 69.47H119.601C119.601 69.47 119.315 72.0696 119.315 75.8271V97.0593C119.315 102.258 122.048 105.003 127.226 105.003H136.286C141.464 105.003 144.197 102.258 144.197 97.0593V1.73199H120.898V3.8994H120.902ZM105.51 57.1944C96.8831 57.1944 90.9829 49.973 90.9829 38.8489C90.9829 27.7248 97.7439 21.0871 105.51 21.0871C115.29 21.0871 120.038 29.8954 120.038 38.8489C120.038 51.705 112.991 57.1944 105.51 57.1944Z" fill="#552D0B"/>
<path d="M361.15 5.1483e-05C337.276 5.1483e-05 322.604 17.0426 322.604 38.8489C322.604 58.6394 336.846 77.8462 363.308 77.8462C374.669 77.8462 383.441 74.237 388.763 71.202C393.079 68.7476 393.799 64.8482 391.496 60.3682L389.485 56.6139C387.041 51.9953 383.588 51.4147 378.841 53.5789C375.102 55.4593 370.355 57.0461 365.322 57.0461C357.411 57.0461 349.934 52.8565 348.062 43.7578H394.807C394.807 43.7578 395.382 38.4135 395.382 35.959C395.382 15.3042 383.017 -0.00317383 361.153 -0.00317383L361.15 5.1483e-05ZM348.64 29.4633C349.934 23.9738 353.384 18.7746 360.578 18.7746C366.472 18.7746 370.355 23.8287 370.355 29.4633H348.64Z" fill="#552D0B"/>
<path d="M514.771 5.1483e-05C490.897 5.1483e-05 476.225 17.0426 476.225 38.8489C476.225 58.6394 490.467 77.8462 516.929 77.8462C528.29 77.8462 537.061 74.237 542.384 71.202C546.7 68.7476 547.42 64.8482 545.117 60.3682L543.106 56.6139C540.662 51.9953 537.209 51.4147 532.462 53.5789C528.723 55.4593 523.976 57.0461 518.943 57.0461C511.032 57.0461 503.555 52.8565 501.683 43.7578H548.428C548.428 43.7578 549.003 38.4135 549.003 35.959C549.003 15.3042 536.637 -0.00317383 514.774 -0.00317383L514.771 5.1483e-05ZM502.261 29.4633C503.555 23.9738 507.005 18.7746 514.199 18.7746C520.093 18.7746 523.976 23.8287 523.976 29.4633H502.261Z" fill="#552D0B"/>
</g>
<defs>
<clipPath id="clip0_321_8">
<rect width="549" height="105" fill="white"/>
</clipPath>
</defs>
</svg>
